<?xml version="1.0" encoding="UTF-8" standalone="no"?>
<!-- Generator: Gravit.io -->
<svg xmlns="http://www.w3.org/2000/svg" xmlns:xlink="http://www.w3.org/1999/xlink" style="isolation:isolate" viewBox="0 0 75 75" width="75pt" height="75pt"><defs><clipPath id="_clipPath_EUivYe0bYIP7PTO9qItmFlq3dQDAVcv0"><rect width="75" height="75"/></clipPath></defs><g clip-path="url(#_clipPath_EUivYe0bYIP7PTO9qItmFlq3dQDAVcv0)"><g clip-path="url(#_clipPath_4VtqfLhuCI1yP7CcmJHZWrk1384G5pr3)"><text transform="matrix(1.788,0,0,1.788,17.502,41.504)" style="font-family:'Martel';font-weight:400;font-size:20px;font-style:normal;fill:#00abe7;stroke:none;">J</text></g><defs><clipPath id="_clipPath_4VtqfLhuCI1yP7CcmJHZWrk1384G5pr3"><rect x="0" y="0" width="10" height="33.74" transform="matrix(1.788,0,0,1.788,16,1.271)"/></clipPath></defs><g clip-path="url(#_clipPath_C7HNAZDojiZKxF28xQaGrL1ivqUD2Qf7)"><text transform="matrix(1.788,0,0,1.788,18.637,40.333)" style="font-family:'Martel';font-weight:400;font-size:20px;font-style:normal;fill:#000000;stroke:none;">J</text></g><defs><clipPath id="_clipPath_C7HNAZDojiZKxF28xQaGrL1ivqUD2Qf7"><rect x="0" y="0" width="10" height="33.74" transform="matrix(1.788,0,0,1.788,17.135,0.101)"/></clipPath></defs><g clip-path="url(#_clipPath_RCvvLNkduR7WLSomdgMhy3kntLC2mNV9)"><text transform="matrix(1.788,0,0,1.788,31.797,54.801)" style="font-family:'Martel';font-weight:400;font-size:20px;font-style:normal;fill:#00abe7;stroke:none;">A</text></g><defs><clipPath id="_clipPath_RCvvLNkduR7WLSomdgMhy3kntLC2mNV9"><rect x="0" y="0" width="17" height="33.74" transform="matrix(1.788,0,0,1.788,31.44,14.568)"/></clipPath></defs><g clip-path="url(#_clipPath_eYEc4QwjKuoI9dXyJascjwRHjyeMQDu2)"><text transform="matrix(1.788,0,0,1.788,32.96,53.679)" style="font-family:'Martel';font-weight:400;font-size:20px;font-style:normal;fill:#000000;stroke:none;">A</text></g><defs><clipPath id="_clipPath_eYEc4QwjKuoI9dXyJascjwRHjyeMQDu2"><rect x="0" y="0" width="17" height="33.74" transform="matrix(1.788,0,0,1.788,32.602,13.446)"/></clipPath></defs></g></svg>